<?xml version="1.0" encoding="UTF-8"?>
<svg id="Capa_1" data-name="Capa 1" xmlns="http://www.w3.org/2000/svg" viewBox="0 0 277 292.5">
  <defs>
    <style>
      .cls-1 {
        fill: #d4a017;
        stroke-width: 0px;
      }
    </style>
  </defs>
  <path class="cls-1" d="M117.65,146.87c0-20.39-.12-40.79.09-61.18.05-4.46-1.38-6.02-5.75-5.64-3.48.3-7.02-.1-10.52.1-3.13.18-4.14-1.16-4.04-4.12.09-2.65-.11-4.92,3.75-4.91,25.74.1,51.49.1,77.23-.01,3.63-.02,3.94,1.76,3.99,4.66.06,3.19-.92,4.59-4.28,4.38-3.5-.23-7.04.2-10.52-.1-4.26-.37-5.35,1.38-5.33,5.45.16,26.24.08,52.49.08,78.74,0,14.71.12,29.42-.07,44.13-.05,3.93,1.15,5.45,5.14,5.11,3.49-.29,7.03.17,10.52-.1,3.71-.29,4.47,1.4,4.49,4.71.02,3.25-1.02,4.37-4.32,4.36-25.41-.1-50.82-.11-76.23.02-3.65.02-4.5-1.41-4.5-4.76,0-3.27,1.07-4.52,4.35-4.33,3.5.2,7.04-.22,10.52.1,4.25.38,5.49-1.32,5.46-5.42-.15-20.39-.07-40.79-.07-61.18ZM153.38,146.84c0-20.54-.05-41.08.05-61.63.02-3.38-.52-5.2-4.58-5.21-4.23-.02-4.46,2.15-4.46,5.35.05,40.92.04,81.83.01,122.75,0,3.09.03,5.38,4.35,5.47,4.58.1,4.66-2.28,4.65-5.61-.07-20.38-.03-40.75-.03-61.13ZM135.48,146.46c0-20.4-.05-40.79.05-61.19.01-3.32-.41-5.25-4.53-5.27-4.29-.03-4.42,2.21-4.41,5.37.05,40.96.05,81.92,0,122.88,0,3.23.28,5.36,4.5,5.3,4.17-.06,4.46-2.17,4.45-5.4-.08-20.56-.04-41.13-.05-61.69Z"/>
  <path class="cls-1" d="M40.45,113.52c2.7-.11,5.4-.22,8.1-.33,13.88-28.12,23.76-48.35,25.11-51.94.19-.5.84-2.36,2.6-3.54,1.15-.77,2.59-1.06,4.51-1.06,39.48.13,78.95.13,118.43,0,1.95,0,3.41.27,4.54,1.07,1.69,1.19,2.25,3.07,2.42,3.6,1.18,3.68,9.47,23.82,21.08,51.74l8.46.45c-1.28,2.74-3.7,6.93-8.11,10.41-7.57,5.97-16.06,5.97-24.64,5.97-9.02,0-18.89,0-26.69-7.03-3.31-2.98-5.22-6.3-6.32-8.68l10.34-.66c6.59-15.77,13.18-31.55,19.77-47.32h-120.62c6.29,15.56,12.57,31.13,18.86,46.69,2.56.21,5.11.42,7.67.63-1.43,2.42-3.8,5.77-7.56,8.82-9.11,7.39-19.58,7.5-25.19,7.56-6.21.06-17.11.18-25.9-7.51-3.55-3.1-5.65-6.51-6.85-8.87ZM87.4,113.12c-3.89-12.88-7.79-25.77-11.68-38.65-5.46,13.02-10.92,26.03-16.38,39.05,9.35-.13,18.7-.27,28.05-.4ZM215.54,113.52c-4.2-12.18-8.4-24.35-12.6-36.53-4.38,12.11-8.76,24.22-13.15,36.34,8.58.06,17.16.13,25.74.19Z"/>
  <rect class="cls-1" x="73.2" y="228.15" width="129.74" height="11.34" rx="2" ry="2"/>
</svg>